HIERARCHY
ROOT hip
{
  OFFSET 0 0 0
  CHANNELS 6 Xposition Yposition Zposition Zrotation Yrotation Xrotation
  JOINT abdomen
  {
    OFFSET 0 20.6881 -0.73152
    CHANNELS 3 Zrotation Xrotation Yrotation
    JOINT chest
    {
      OFFSET 0 11.7043 -0.48768
      CHANNELS 3 Zrotation Xrotation Yrotation
      JOINT neck
      {
        OFFSET 0 22.1894 -2.19456
        CHANNELS 3 Zrotation Xrotation Yrotation
        JOINT head
        {
          OFFSET -0.24384 7.07133 1.2192
          CHANNELS 3 Zrotation Xrotation Yrotation
          JOINT leftEye
          {
            OFFSET 4.14528 8.04674 8.04672
            CHANNELS 3 Zrotation Xrotation Yrotation
            End Site
            {
              OFFSET 1 0 0
            }
          }
          JOINT rightEye
          {
            OFFSET -3.6576 8.04674 8.04672
            CHANNELS 3 Zrotation Xrotation Yrotation
            End Site
            {
              OFFSET 1 0 0
            }
          }
        }
      }
      JOINT rCollar
      {
        OFFSET -2.68224 19.2634 -4.8768
        CHANNELS 3 Zrotation Xrotation Yrotation
        JOINT rShldr
        {
          OFFSET -8.77824 -1.95073 1.46304
          CHANNELS 3 Zrotation Xrotation Yrotation
          JOINT rForeArm
          {
            OFFSET -28.1742 -1.7115 0.48768
            CHANNELS 3 Zrotation Xrotation Yrotation
            JOINT rHand
            {
              OFFSET -22.5879 0.773209 7.07136
              CHANNELS 3 Zrotation Xrotation Yrotation
              JOINT rThumb1
              {
                OFFSET -1.2192 -0.487915 3.41376
                CHANNELS 3 Zrotation Xrotation Yrotation
                JOINT rThumb2
                {
                  OFFSET -3.37035 -0.52449 3.41376
                  CHANNELS 3 Zrotation Xrotation Yrotation
                  End Site
                  {
                    OFFSET -1.78271 -1.18214 1.43049
                  }
                }
              }
              JOINT rIndex1
              {
                OFFSET -7.75947 0.938293 5.60832
                CHANNELS 3 Zrotation Xrotation Yrotation
                JOINT rIndex2
                {
                  OFFSET -2.54057 -0.884171 1.56538
                  CHANNELS 3 Zrotation Xrotation Yrotation
                  End Site
                  {
                    OFFSET -1.62519 -0.234802 1.16502
                  }
                }
              }
              JOINT rMid1
              {
                OFFSET -8.24714 1.18213 3.41376
                CHANNELS 3 Zrotation Xrotation Yrotation
                JOINT rMid2
                {
                  OFFSET -3.10165 -0.590103 1.0647
                  CHANNELS 3 Zrotation Xrotation Yrotation
                  End Site
                  {
                    OFFSET -2.48547 -0.328903 0.83742
                  }
                }
              }
              JOINT rRing1
              {
                OFFSET -8.82822 0.546677 1.51678
                CHANNELS 3 Zrotation Xrotation Yrotation
                JOINT rRing2
                {
                  OFFSET -2.60934 -0.819778 -0.0198488
                  CHANNELS 3 Zrotation Xrotation Yrotation
                  End Site
                  {
                    OFFSET -2.33842 -0.294052 0.168128
                  }
                }
              }
              JOINT rPinky1
              {
                OFFSET -8.27202 -0.0477905 -0.4584
                CHANNELS 3 Zrotation Xrotation Yrotation
                JOINT rPinky2
                {
                  OFFSET -1.82734 -0.647385 -0.700984
                  CHANNELS 3 Zrotation Xrotation Yrotation
                  End Site
                  {
                    OFFSET -1.69225 -0.51767 -0.607171
                  }
                }
              }
            }
          }
        }
      }
      JOINT lCollar
      {
        OFFSET 2.68224 19.2634 -4.8768
        CHANNELS 3 Zrotation Xrotation Yrotation
        JOINT lShldr
        {
          OFFSET 8.77824 -1.95073 1.46304
          CHANNELS 3 Zrotation Xrotation Yrotation
          JOINT lForeArm
          {
            OFFSET 28.1742 -1.7115 0.48768
            CHANNELS 3 Zrotation Xrotation Yrotation
            JOINT lHand
            {
              OFFSET 22.5879 0.773209 7.07136
              CHANNELS 3 Zrotation Xrotation Yrotation
              JOINT lThumb1
              {
                OFFSET 1.2192 -0.487915 3.41376
                CHANNELS 3 Zrotation Xrotation Yrotation
                JOINT lThumb2
                {
                  OFFSET 3.37035 -0.52449 3.41376
                  CHANNELS 3 Zrotation Xrotation Yrotation
                  End Site
                  {
                    OFFSET 1.78271 -1.18214 1.43049
                  }
                }
              }
              JOINT lIndex1
              {
                OFFSET 7.75947 0.938293 5.60832
                CHANNELS 3 Zrotation Xrotation Yrotation
                JOINT lIndex2
                {
                  OFFSET 2.54057 -0.884171 1.56538
                  CHANNELS 3 Zrotation Xrotation Yrotation
                  End Site
                  {
                    OFFSET 1.62519 -0.234802 1.16502
                  }
                }
              }
              JOINT lMid1
              {
                OFFSET 8.24714 1.18213 3.41376
                CHANNELS 3 Zrotation Xrotation Yrotation
                JOINT lMid2
                {
                  OFFSET 3.10165 -0.590103 1.0647
                  CHANNELS 3 Zrotation Xrotation Yrotation
                  End Site
                  {
                    OFFSET 2.48547 -0.328903 0.83742
                  }
                }
              }
              JOINT lRing1
              {
                OFFSET 8.82822 0.546677 1.51678
                CHANNELS 3 Zrotation Xrotation Yrotation
                JOINT lRing2
                {
                  OFFSET 2.60934 -0.819778 -0.0198488
                  CHANNELS 3 Zrotation Xrotation Yrotation
                  End Site
                  {
                    OFFSET 2.33842 -0.294052 0.168128
                  }
                }
              }
              JOINT lPinky1
              {
                OFFSET 8.27202 -0.0477905 -0.4584
                CHANNELS 3 Zrotation Xrotation Yrotation
                JOINT lPinky2
                {
                  OFFSET 1.82734 -0.647385 -0.700984
                  CHANNELS 3 Zrotation Xrotation Yrotation
                  End Site
                  {
                    OFFSET 1.69225 -0.51767 -0.607171
                  }
                }
              }
            }
          }
        }
      }
    }
  }
  JOINT rButtock
  {
    OFFSET -8.77824 4.35084 1.2192
    CHANNELS 3 Zrotation Xrotation Yrotation
    JOINT rThigh
    {
      OFFSET 0 -1.70687 -2.19456
      CHANNELS 3 Zrotation Xrotation Yrotation
      JOINT rShin
      {
        OFFSET 0 -36.8199 0.73152
        CHANNELS 3 Zrotation Xrotation Yrotation
        JOINT rFoot
        {
          OFFSET 0.73152 -45.1104 -5.12064
          CHANNELS 3 Zrotation Xrotation Yrotation
          End Site
          {
            OFFSET -1.1221 -3.69964 12.103
          }
        }
      }
    }
  }
  JOINT lButtock
  {
    OFFSET 8.77824 4.35084 1.2192
    CHANNELS 3 Zrotation Xrotation Yrotation
    JOINT lThigh
    {
      OFFSET 0 -1.70687 -2.19456
      CHANNELS 3 Zrotation Xrotation Yrotation
      JOINT lShin
      {
        OFFSET 0 -36.8199 0.73152
        CHANNELS 3 Zrotation Xrotation Yrotation
        JOINT lFoot
        {
          OFFSET -0.73152 -45.1104 -5.12064
          CHANNELS 3 Zrotation Xrotation Yrotation
          End Site
          {
            OFFSET 1.1221 -3.69964 12.103
          }
        }
      }
    }
  }
}
MOTION
Frames:	8
Frame Time:	0.00833333
0.0 0.0 0.0 0.0 0.0 0.0 0.0 0.0 0.0 0.0 0.0 0.0 0.0 0.0 0.0 0.0 0.0 0.0 0.0 0.0 0.0 0.0 0.0 0.0 0.0 0.0 0.0 0.0 0.0 0.0 0.0 0.0 0.0 0.0 0.0 0.0 0.0 0.0 0.0 0.0 0.0 0.0 0.0 0.0 0.0 0.0 0.0 0.0 0.0 0.0 0.0 0.0 0.0 0.0 0.0 0.0 0.0 0.0 0.0 0.0 0.0 0.0 0.0 0.0 0.0 0.0 0.0 0.0 0.0 0.0 0.0 0.0 0.0 0.0 0.0 0.0 0.0 0.0 0.0 0.0 0.0 0.0 0.0 0.0 0.0 0.0 0.0 0.0 0.0 0.0 0.0 0.0 0.0 0.0 0.0 0.0 0.0 0.0 0.0 0.0 0.0 0.0 0.0 0.0 0.0 0.0 0.0 0.0 0.0 0.0 0.0 0.0 0.0 0.0 0.0 0.0 0.0 0.0 0.0 0.0 0.0 0.0 0.0 0.0 0.0 0.0 0.0 0.0 0.0 0.0 0.0 0.0
-62.8011 84.1629 -0.23925499999999997 -0.0 0.0 -0.0 -0.0 -4.771896 -180.0 -0.0 -4.771896 180.0 11.359575 6.157081 79.425429 -8.145262 10.039281 -79.321748 -0.0 0.0 -0.0 -0.0 0.0 -0.0 0.163072 -0.990049 -0.218539 0.0347 -14.045531 -0.674056 176.292287 -12.876024 143.463113 176.128623 0.158746 145.2389 11.110121 -11.092107 -0.639674 -125.656461 -10.477659 113.297776 -145.338335 -6.264511 118.677783 23.768168 -8.964352 -13.760621 68.983989 -80.15399 40.578188 -86.025069 60.986081 77.509375 0.000273 0.036338 0.011416 -165.778526 -1.569342 171.977906 -24.989488 -37.659231 -24.060311 12.91927 44.261355 10.710752 -0.163072 -0.990049 0.218539 85.353607 -87.674268 89.673126 161.861398 -0.255999 -156.754547 -84.221571 -70.715173 -68.971347 -81.971691 -50.091534 -32.722881 110.747569 35.149546 -74.44326 43.648276 38.803952 -34.059571 -6.39048 -10.916538 11.257108 152.506896 15.532576 -138.286663 160.982139 -7.24632 -144.550558 73.163647 -72.142466 90.198134 155.942286 -33.906002 -168.82374 -25.916531 79.094076 -10.831563 81.58888 -51.263957 79.799345 -0.0 0.0 -0.0 0.0 -0.0 0.0 7.412003 5.375478 88.126367 -6.681402 -4.495294 -91.691623 -0.0 0.0 -0.0 0.0 -0.0 0.0 -7.412003 5.375478 -88.126367 5.954324 2.538275 89.524093
-62.7023 84.1679 -0.0747147 -0.0 0.0 -0.0 -0.0 -4.771896 -180.0 -0.0 -4.771896 180.0 11.359575 6.157081 79.425429 -8.145262 10.039281 -79.321748 -0.0 0.0 -0.0 -0.0 0.0 -0.0 -13.015985 41.250126 14.798846 8.88745 15.768313 -3.07408 -82.695951 86.765923 52.045365 165.78317 -28.965329 141.54372 -6.581133 6.344846 1.36571 -114.160877 -5.898191 102.825026 -100.824001 37.73392 85.162146 110.669591 -76.55702 58.976706 21.548599 -58.001218 0.002502 -4.518185 14.054063 5.464452 -0.014868 -1.323148 -0.415899 0.026689 -62.929366 -8.60583 -123.036034 -31.102513 -120.853588 -17.740829 -38.24607 -20.7793 13.015985 41.250126 -14.798846 -8.88745 15.768313 3.07408 92.61782 86.919171 -61.933741 -166.014817 -28.436235 -141.673481 170.594228 -8.27758 -89.948904 71.553799 2.023981 -22.111097 27.608968 30.765951 -20.255213 94.061989 54.897852 -64.576982 -0.541241 -1.589941 0.294737 4.380223 12.13227 -2.179572 145.111781 -0.626713 178.931407 65.377824 -78.098734 97.300436 150.577948 31.033784 146.363897 102.857087 -45.435896 103.410572 -0.0 0.0 -0.0 0.0 -0.0 0.0 7.412003 5.375478 88.126367 -6.681402 -4.495294 -91.691623 -0.0 0.0 -0.0 0.0 -0.0 0.0 -7.412003 5.375478 -88.126367 6.681402 -4.495294 91.691623
-62.606399999999994 84.1712 0.0780617 -0.0 -0.0 -0.0 -0.0 0.0 -0.0 -0.0 0.0 -0.0 -8.109464 10.77652 -83.526925 11.611201 6.85153 83.595634 -0.0 -0.0 0.0 -0.0 -0.0 0.0 -155.591545 -4.088487 161.959991 -145.581075 25.018451 158.108317 -174.741167 -0.531188 144.799416 166.40776 -27.524392 141.889717 -94.791592 37.828669 54.283857 -157.346588 -31.269351 79.316165 -27.421557 30.63922 20.098782 -1.609787 2.677886 -7.180964 -160.09819 -4.901163 142.968881 -160.68304 -6.721546 143.332779 -145.119466 0.267775 -179.212461 -142.000632 76.547482 167.020272 -1.178169 -2.985265 -1.092498 -155.794765 33.728738 -148.081231 159.220516 -48.028485 -170.415257 -30.244758 -44.445512 -25.972225 10.239013 -52.966637 41.228888 -150.849223 -52.058393 -130.759571 161.772504 0.529175 -89.181873 24.22076 -33.325566 -9.905986 -179.29168 -59.501832 -116.31629 142.413795 -2.40642 -111.481691 -6.533059 -20.414937 2.717988 45.625686 57.380108 -36.832501 0.021291 -1.725169 0.542387 166.939417 -46.352724 -177.002163 156.381711 53.734251 150.117957 173.441829 69.770989 139.432988 -0.0 0.0 -0.0 -0.0 -0.0 -0.0 -2.721753 1.041334 -25.607042 80.981142 5.948809 -7.990811 -0.0 0.0 -0.0 -0.0 -0.0 -0.0 2.721753 1.041334 25.607042 -80.981142 5.948809 7.990811
-62.5105 84.1748 0.22129199999999996 -0.0 0.0 -0.0 -0.0 -4.771896 -180.0 -0.0 -4.771896 180.0 11.359575 6.157081 79.425429 -8.145262 10.039281 -79.321748 -0.0 0.0 -0.0 -0.0 0.0 -0.0 0.163072 -0.990049 -0.218539 0.0347 -14.045531 -0.674056 178.589974 -6.23381 144.07474 174.010287 -6.532913 144.891378 175.880133 -21.257501 88.493291 4.631265 -63.480204 3.214179 10.281995 -18.182542 -4.585706 93.851201 -58.015545 48.540856 -86.295205 60.96028 77.857271 -82.925135 67.235937 75.107752 0.000474 0.063775 0.020036 -16.311068 61.915775 18.651967 1.482059 4.003653 1.360876 55.47833 85.151875 -19.996428 -0.163072 -0.990049 0.218539 85.107139 -87.674016 89.426254 11.311241 82.40249 -14.410549 2.617082 8.37071 0.095428 -6.463714 -6.452652 0.634888 4.27255 3.512497 0.717084 8.571718 12.508866 -5.450041 -3.358408 -6.542784 3.44057 -0.541241 -1.589941 0.294737 157.059634 20.499268 -138.463669 0.000142 -0.018512 0.005816 165.73702 -1.030532 -171.900672 -26.973563 80.122588 -10.137824 -16.229463 41.675444 -4.095489 -0.0 0.0 -0.0 0.0 -0.0 0.0 7.412003 5.375478 88.126367 -6.681402 -4.495294 -91.691623 -0.0 0.0 -0.0 0.0 -0.0 0.0 -7.412003 5.375478 -88.126367 6.681402 -4.495294 91.691623
-62.3833 84.1837 0.377451 -0.0 0.0 -0.0 -0.0 0.0 -0.0 0.0 -0.0 0.0 -8.144362 10.101976 -79.678508 11.382902 6.215336 79.779518 -0.0 -0.0 0.0 -0.0 -0.0 0.0 -9.651699 34.836178 11.199233 -13.947974 -74.820692 -25.030574 178.469239 -28.455013 142.220547 173.145992 -9.195026 144.68172 -121.36458 30.329582 71.957921 -62.168797 -6.481966 40.722499 -77.667448 43.02965 64.538509 36.125341 -58.338961 -4.644018 -89.835461 60.702148 81.262754 -171.045893 -34.710726 147.358396 -0.006699 3.47564 1.092469 -3.2799 29.415025 3.92277 -16.662593 -29.659212 -15.919774 0.985539 -0.527095 1.082101 80.1661 68.371792 -83.260848 -6.284056 -75.51946 14.784394 -176.252039 11.836016 -146.705203 -176.647682 1.819568 -145.286785 5.433768 5.264911 -1.077842 122.629503 -16.98574 -108.863913 -10.211155 -18.05077 4.56389 -9.711184 -8.90032 -2.356445 15.317654 32.8094 -11.206912 172.447042 -28.084775 -146.245007 -0.000474 0.063775 -0.020036 159.113617 -76.441969 171.691109 145.543006 13.244722 142.14923 144.249772 9.353748 141.141172 -0.0 0.0 -0.0 0.0 -0.0 0.0 7.412003 5.375478 88.126367 -6.681402 -4.495294 -91.691623 -0.0 0.0 -0.0 0.0 -0.0 0.0 -7.412003 5.375478 -88.126367 5.954324 2.538275 89.524093
-62.2042 84.2008 0.539475 -0.0 -0.0 -0.0 -0.0 0.0 -0.0 -0.0 -0.0 -0.0 -7.608028 13.134247 -97.362004 12.070264 9.21646 97.262646 -0.0 0.0 -0.0 -0.0 0.0 -0.0 -155.809564 -5.55542 162.26674 -150.194803 13.27097 160.088591 175.361349 -16.600327 142.973213 176.874382 2.545917 145.303006 -164.698424 -2.371915 89.58543 -117.237297 10.026729 54.207803 -170.428243 -48.899505 121.081159 178.795924 -52.074261 101.225379 -160.889433 -7.337573 143.345306 -81.261647 63.957945 76.408474 -0.014868 -1.323148 -0.415899 -84.094999 78.521328 87.267037 3.243548 9.137447 2.954514 -0.275289 -0.24054 -0.525291 155.716846 -4.925325 -162.135615 -98.073336 -75.665875 -75.836374 -0.309386 62.610309 31.17793 -168.009485 -23.620268 -142.717586 -6.463714 -6.452652 0.634888 -172.508042 -83.967804 -100.312729 -45.282556 -63.865437 -4.306423 -15.046768 -0.540924 -4.806815 -6.908911 -21.623998 2.809719 -14.647033 -39.129868 -0.98771 -0.000474 0.063839 -0.020056 163.621249 20.664558 -168.780455 138.443086 -6.230077 135.659578 125.26561 -29.070654 125.859563 -180.0 75.749642 -0.0 -180.0 73.473292 -180.0 -5.202696 -3.77183 -131.645293 22.89956 -39.236352 -55.170111 -180.0 75.749642 -0.0 -180.0 73.473292 -180.0 5.202696 -3.77183 131.645293 -22.89956 -39.236352 55.170111
-62.0267 84.2157 0.694911 -0.0 0.0 -0.0 -0.0 -4.771896 -180.0 -0.0 -4.771896 -180.0 0.245875 19.608241 -158.802917 7.579128 18.139248 157.548848 -0.0 -0.0 0.0 -0.0 -0.0 0.0 -81.707814 68.336987 84.818743 -69.50785 86.49005 89.109782 -179.449613 19.475074 179.866476 -6.891023 21.412662 0.56164 -0.543938 0.536215 0.086055 -2.989876 3.654845 2.852328 24.075919 -42.306446 -5.558499 -153.735897 0.232983 103.358235 179.328838 -59.004958 141.728729 -161.965687 -5.552305 140.611109 -145.121957 1.974539 -179.748654 22.291454 29.050268 -6.129979 1.482059 4.003653 1.360876 -161.745304 53.633975 -149.662464 9.651699 34.836178 -11.199233 164.452868 -27.575476 176.062683 -24.466423 -84.305091 13.616615 -169.979026 -18.41326 -143.605258 -51.059793 -41.203951 -12.856726 4.193385 -63.612175 41.580327 -37.215945 -57.917763 0.643014 85.459282 41.280927 -67.37109 -7.431997 -23.30116 2.923946 165.967703 -3.677415 -141.89424 0.014868 -1.323148 0.415899 -0.111482 -0.044205 -0.242448 152.347825 37.910887 147.688612 -19.052298 42.295433 -4.650915 -180.0 75.749642 -0.0 -180.0 75.749642 -0.0 -5.240399 4.225182 -61.482581 -25.755829 -49.157329 66.88783 -180.0 75.749642 -0.0 -180.0 75.749642 -0.0 5.240399 4.225182 61.482581 25.755829 -49.157329 -66.88783
